<svg width="118" height="44" viewBox="0 0 118 44" fill="none" xmlns="http://www.w3.org/2000/svg">
<path d="M32.7843 19.1242C32.1737 19.7385 31.7062 20.4799 31.4149 21.2955C31.1236 22.1112 31.0158 22.981 31.0991 23.8431L31.0701 23.8141C31.1558 24.829 31.0189 25.8501 30.6691 26.8066C30.3193 27.7629 29.7651 28.6315 29.0451 29.3517C28.3249 30.0717 27.4564 30.6261 26.4998 30.9757C25.5435 31.3254 24.5222 31.4624 23.5075 31.3767L23.5365 31.4057C22.3227 31.2927 21.1036 31.5568 20.0453 32.1621C18.9871 32.7674 18.1412 33.6843 17.6233 34.7879C17.1053 35.8915 16.9402 37.1279 17.1506 38.3288C17.3611 39.5295 17.9368 40.6362 18.7992 41.4978C19.6616 42.3595 20.7688 42.9341 21.9697 43.1434C23.1708 43.3529 24.407 43.1866 25.5101 42.6677C26.6133 42.1486 27.5293 41.3021 28.1337 40.2433C28.738 39.1844 29.0011 37.9651 28.887 36.7513L28.9176 36.7803C28.8319 35.7657 28.9687 34.7444 29.3185 33.7879C29.6683 32.8315 30.2226 31.963 30.9426 31.2428C31.6628 30.5228 32.5314 29.9684 33.4877 29.6188C34.4442 29.269 35.4654 29.1321 36.4802 29.2178L36.4496 29.1888C37.4411 29.2779 38.4391 29.1153 39.3512 28.7161C40.2631 28.3168 41.0596 27.6938 41.6667 26.9049C42.2737 26.1159 42.672 25.1863 42.8241 24.2026C42.9764 23.2186 42.8778 22.2123 42.5375 21.2766C42.1972 20.341 41.6262 19.5065 40.8776 18.8503C40.1289 18.1941 39.2267 17.7375 38.2545 17.5229C37.2824 17.3083 36.2717 17.3424 35.3163 17.6223C34.3609 17.9023 33.4917 18.4188 32.7891 19.1242H32.7843Z" fill="#262626"/>
<path d="M20.8991 27.6066L20.8685 27.5776C21.731 27.6644 22.6019 27.5586 23.4186 27.2676C24.2351 26.9767 24.9769 26.508 25.5901 25.8953C26.2031 25.2826 26.6726 24.5411 26.964 23.7248C27.2556 22.9084 27.3621 22.0376 27.2759 21.175L27.3065 21.204C27.2208 20.1892 27.3578 19.1681 27.7074 18.2116C28.0572 17.2552 28.6115 16.3867 29.3315 15.6665C30.0517 14.9465 30.9203 14.3921 31.8766 14.0425C32.8331 13.6927 33.8542 13.5558 34.8691 13.6415L34.8385 13.6125C36.0525 13.7266 37.2719 13.4632 38.3307 12.8586C39.3897 12.2541 40.2362 11.3375 40.755 10.2341C41.2737 9.13076 41.4395 7.89418 41.2298 6.69309C41.02 5.49199 40.4448 4.38486 39.5826 3.52269C38.7204 2.66054 37.6133 2.08531 36.4122 1.87551C35.2111 1.66569 33.9746 1.83149 32.8712 2.3503C31.7677 2.8691 30.8513 3.71566 30.2467 4.77449C29.642 5.83332 29.3787 7.05288 29.4928 8.26682L29.4638 8.23621C29.5497 9.25103 29.4131 10.2724 29.0635 11.2289C28.7138 12.1855 28.1595 13.0542 27.4395 13.7744C26.7193 14.4944 25.8506 15.0488 24.8941 15.3984C23.9374 15.748 22.9161 15.8846 21.9013 15.7988L21.9303 15.8294C21.0678 15.7425 20.1967 15.8484 19.3802 16.1394C18.5637 16.4302 17.8219 16.899 17.2087 17.5117C16.5955 18.1244 16.1262 18.8658 15.8346 19.6822C15.5432 20.4985 15.4367 21.3693 15.5229 22.2319L15.4939 22.2029C15.5793 23.2176 15.4422 24.2387 15.0924 25.1951C14.7424 26.1513 14.1882 27.0198 13.4682 27.7398C12.7481 28.4598 11.8797 29.0141 10.9234 29.364C9.96711 29.7138 8.94601 29.8509 7.93131 29.7655L7.96031 29.7945C6.74637 29.6804 5.52681 29.9437 4.46797 30.5483C3.40915 31.153 2.56259 32.0694 2.0438 33.1728C1.52499 34.2763 1.35917 35.5128 1.56899 36.7139C1.7788 37.915 2.35403 39.0221 3.21619 39.8842C4.07836 40.7465 5.18548 41.3217 6.38658 41.5314C7.58768 41.7412 8.82426 41.5754 9.92766 41.0566C11.031 40.5379 11.9476 39.6914 12.5521 38.6326C13.1568 37.5736 13.42 36.3541 13.306 35.1402L13.3366 35.1692C13.2509 34.1543 13.3878 33.1332 13.7376 32.1767C14.0872 31.2203 14.6416 30.3518 15.3616 29.6316C16.0818 28.9116 16.9503 28.3572 17.9067 28.0076C18.8632 27.6578 19.8843 27.5209 20.8991 27.6066Z" fill="#262626"/>
<path d="M10.1015 24.3728C10.7121 23.7587 11.1797 23.0172 11.4707 22.2015C11.7617 21.3858 11.8691 20.5158 11.7851 19.6539L11.8157 19.6829C11.73 18.6679 11.8669 17.6463 12.2168 16.6896C12.5668 15.7329 13.1214 14.8642 13.8419 14.144C14.5623 13.4239 15.4312 12.8697 16.3881 12.5202C17.3449 12.1706 18.3665 12.0342 19.3815 12.1203L19.3509 12.0913C20.5644 12.205 21.7835 11.9416 22.8418 11.3371C23.9002 10.7325 24.7462 9.81625 25.2648 8.7132C25.7833 7.61014 25.9489 6.37401 25.7391 5.17336C25.5293 3.97271 24.9542 2.86601 24.0924 2.00416C23.2306 1.14231 22.1238 0.567277 20.9232 0.357478C19.7226 0.147663 18.4864 0.313317 17.3834 0.831805C16.2803 1.35029 15.364 2.1964 14.7595 3.25474C14.1549 4.31308 13.8915 5.53214 14.0052 6.74566L13.9762 6.71666C14.0619 7.73142 13.925 8.75266 13.5752 9.70908C13.2254 10.6655 12.6713 11.5341 11.9512 12.2542C11.2311 12.9743 10.3625 13.5285 9.40607 13.8782C8.44965 14.228 7.42843 14.3649 6.41367 14.2792L6.44267 14.3082C5.45114 14.2193 4.45321 14.3822 3.54135 14.7816C2.62949 15.181 1.8332 15.8041 1.22628 16.5933C0.619358 17.3822 0.221445 18.3118 0.0693888 19.2956C-0.0826518 20.2795 0.0160932 21.2858 0.356473 22.2212C0.696852 23.1568 1.26788 23.9912 2.01661 24.6472C2.76534 25.3034 3.66756 25.7598 4.63968 25.9744C5.61177 26.1889 6.62231 26.1546 7.57765 25.8747C8.53297 25.5947 9.40217 25.0782 10.1047 24.3728H10.1015Z" fill="#262626"/>
<path d="M61.7109 16.1599V19.8416H51.1223V16.1599H61.7109ZM53.5295 11.9748H58.3912V28.3377C58.3912 28.9251 58.5223 29.3604 58.7845 29.6436C59.0467 29.9163 59.4663 30.0526 60.0432 30.0526C60.232 30.0526 60.4418 30.0369 60.6725 30.0054C60.9033 29.974 61.1026 29.9372 61.2704 29.8953L62.0413 33.5455C61.5064 33.7028 60.9872 33.8182 60.4837 33.8916C59.9907 33.965 59.503 34.0017 59.0205 34.0017C57.2688 34.0017 55.9158 33.5664 54.9613 32.6959C54.0068 31.8148 53.5295 30.5771 53.5295 28.9827V11.9748ZM63.835 33.75V16.1599H68.6966V33.75H63.835ZM66.2579 13.91C65.5342 13.91 64.9153 13.6688 64.4014 13.1863C63.8874 12.7038 63.6304 12.1217 63.6304 11.4399C63.6304 10.7581 63.8874 10.1812 64.4014 9.7092C64.9153 9.22671 65.5342 8.98546 66.2579 8.98546C66.9922 8.98546 67.6162 9.22671 68.1302 9.7092C68.6442 10.1812 68.9011 10.7581 68.9011 11.4399C68.9011 12.1217 68.6442 12.7038 68.1302 13.1863C67.6162 13.6688 66.9922 13.91 66.2579 13.91ZM76.5791 34.0804C75.4673 34.0804 74.4656 33.8864 73.574 33.4983C72.6929 33.0997 72.0007 32.5123 71.4972 31.7361C70.9937 30.9599 70.742 29.9949 70.742 28.8411C70.742 27.8552 70.9203 27.037 71.2769 26.3867C71.6335 25.7259 72.1213 25.191 72.7401 24.7819C73.359 24.3728 74.0617 24.0634 74.8484 23.8536C75.6351 23.6438 76.469 23.497 77.35 23.4131C78.3675 23.3187 79.1856 23.2243 79.8045 23.1299C80.4233 23.0355 80.8743 22.8939 81.1576 22.7051C81.4512 22.5058 81.5981 22.2226 81.5981 21.8555V21.7768C81.5981 21.0531 81.3673 20.4919 80.9058 20.0933C80.4548 19.6947 79.815 19.4954 78.9863 19.4954C78.1157 19.4954 77.4182 19.6895 76.8938 20.0776C76.3798 20.4552 76.0389 20.9377 75.8711 21.5251L71.3556 21.1632C71.5863 20.0933 72.0374 19.1703 72.7087 18.3941C73.38 17.6074 74.2453 17.0043 75.3047 16.5847C76.3746 16.1547 77.6123 15.9397 79.0178 15.9397C79.9933 15.9397 80.9268 16.055 81.8184 16.2858C82.7099 16.5166 83.5018 16.8732 84.1941 17.3557C84.8969 17.8277 85.4528 18.4413 85.8619 19.1965C86.2709 19.9517 86.4755 20.8485 86.4755 21.8869V33.75H81.8341V31.2956H81.7082C81.425 31.8515 81.0474 32.3392 80.5754 32.7588C80.1034 33.1679 79.537 33.493 78.8762 33.7343C78.2154 33.965 77.4497 34.0804 76.5791 34.0804ZM77.9794 30.7134C78.6926 30.7134 79.322 30.5718 79.8674 30.2886C80.4233 29.9949 80.8534 29.6068 81.1576 29.1243C81.4722 28.6314 81.6296 28.0807 81.6296 27.4723V25.6C81.4827 25.6944 81.2729 25.7836 81.0002 25.8675C80.738 25.9514 80.4443 26.0248 80.1191 26.0878C79.794 26.1507 79.4688 26.2084 79.1437 26.2609C78.8185 26.3028 78.5248 26.3448 78.2626 26.3867C77.6857 26.4706 77.1822 26.607 76.7522 26.7958C76.3221 26.9741 75.9865 27.2206 75.7452 27.5353C75.5145 27.8394 75.3991 28.2223 75.3991 28.6838C75.3991 29.3446 75.6403 29.8481 76.1228 30.1942C76.6053 30.5404 77.2242 30.7134 77.9794 30.7134ZM94.1849 23.5862V33.75H89.3232V16.1599H94.1062V19.2909H94.2793C94.6779 18.2525 95.3125 17.4344 96.183 16.8365C97.0536 16.2386 98.1445 15.9397 99.4556 15.9397C100.672 15.9397 101.732 16.2071 102.634 16.7421C103.546 17.277 104.254 18.0375 104.758 19.0234C105.261 20.0094 105.513 21.1894 105.513 22.5635V33.75H100.651V23.4288C100.651 22.3589 100.373 21.5198 99.8175 20.9115C99.2616 20.2926 98.4959 19.9832 97.5204 19.9832C96.8701 19.9832 96.2932 20.13 95.7897 20.4237C95.2862 20.7069 94.8929 21.116 94.6097 21.6509C94.3265 22.1859 94.1849 22.8309 94.1849 23.5862Z" fill="#262626"/>
</svg>
