<svg width="118" height="44" viewBox="0 0 118 44" fill="none" xmlns="http://www.w3.org/2000/svg">
<path d="M32.7843 19.1232C32.1737 19.7375 31.7061 20.4789 31.4148 21.2945C31.1235 22.1102 31.0158 22.98 31.0991 23.8421L31.0701 23.8131C31.1558 24.828 31.0188 25.8491 30.669 26.8056C30.3193 27.762 29.7651 28.6305 29.045 29.3507C28.3249 30.0707 27.4563 30.6251 26.4998 30.9747C25.5435 31.3245 24.5222 31.4614 23.5075 31.3757L23.5365 31.4047C22.3227 31.2918 21.1036 31.5558 20.0452 32.1611C18.987 32.7664 18.1412 33.6833 17.6232 34.7869C17.1053 35.8905 16.9401 37.1269 17.1505 38.3278C17.3611 39.5286 17.9368 40.6352 18.7992 41.4969C19.6616 42.3585 20.7688 42.9332 21.9697 43.1424C23.1708 43.3519 24.407 43.1856 25.5101 42.6667C26.6132 42.1476 27.5293 41.3011 28.1336 40.2423C28.738 39.1835 29.0011 37.9642 28.887 36.7504L28.9176 36.7794C28.8319 35.7647 28.9687 34.7434 29.3185 33.7869C29.6682 32.8305 30.2226 31.962 30.9426 31.2418C31.6628 30.5218 32.5313 29.9674 33.4877 29.6178C34.4442 29.268 35.4653 29.1311 36.4802 29.2168L36.4496 29.1878C37.441 29.2769 38.4391 29.1143 39.3512 28.7151C40.2631 28.3159 41.0596 27.6929 41.6667 26.9039C42.2737 26.1149 42.672 25.1853 42.8241 24.2016C42.9763 23.2177 42.8777 22.2114 42.5375 21.2756C42.1972 20.3401 41.6262 19.5055 40.8775 18.8493C40.1288 18.1931 39.2266 17.7365 38.2545 17.5219C37.2823 17.3073 36.2717 17.3415 35.3163 17.6213C34.3609 17.9013 33.4917 18.4178 32.7891 19.1232H32.7843Z" fill="#F5F5F5"/>
<path d="M20.8991 27.6056L20.8685 27.5766C21.731 27.6635 22.6019 27.5576 23.4186 27.2666C24.2351 26.9757 24.9769 26.507 25.5901 25.8943C26.2031 25.2816 26.6726 24.5402 26.964 23.7238C27.2556 22.9075 27.3621 22.0367 27.2759 21.1741L27.3065 21.2031C27.2208 20.1882 27.3578 19.1671 27.7074 18.2106C28.0572 17.2542 28.6115 16.3857 29.3315 15.6655C30.0517 14.9455 30.9203 14.3911 31.8766 14.0415C32.8331 13.6917 33.8542 13.5548 34.8691 13.6405L34.8385 13.6115C36.0525 13.7256 37.2719 13.4623 38.3307 12.8577C39.3897 12.2531 40.2362 11.3366 40.755 10.2332C41.2737 9.12978 41.4395 7.89321 41.2298 6.69211C41.02 5.49101 40.4448 4.38389 39.5826 3.52172C38.7204 2.65956 37.6133 2.08433 36.4122 1.87453C35.2111 1.66472 33.9746 1.83052 32.8712 2.34933C31.7677 2.86812 30.8513 3.71468 30.2467 4.77352C29.642 5.83234 29.3787 7.0519 29.4928 8.26584L29.4638 8.23523C29.5497 9.25005 29.4131 10.2714 29.0635 11.2279C28.7138 12.1845 28.1595 13.0532 27.4395 13.7734C26.7193 14.4934 25.8506 15.0478 24.8941 15.3974C23.9374 15.747 22.9161 15.8837 21.9013 15.7978L21.9303 15.8284C21.0678 15.7416 20.1967 15.8474 19.3802 16.1384C18.5637 16.4292 17.8219 16.898 17.2087 17.5107C16.5955 18.1234 16.1262 18.8649 15.8346 19.6812C15.5432 20.4976 15.4367 21.3684 15.5229 22.231L15.4939 22.202C15.5793 23.2166 15.4422 24.2378 15.0924 25.1941C14.7424 26.1503 14.1882 27.0189 13.4682 27.7389C12.7481 28.4589 11.8797 29.0131 10.9234 29.363C9.96711 29.7128 8.94601 29.8499 7.93131 29.7645L7.96031 29.7935C6.74637 29.6794 5.52681 29.9427 4.46797 30.5473C3.40915 31.152 2.56259 32.0684 2.0438 33.1718C1.52499 34.2753 1.35917 35.5118 1.56899 36.7129C1.7788 37.914 2.35403 39.0211 3.21619 39.8833C4.07836 40.7455 5.18548 41.3207 6.38658 41.5305C7.58768 41.7402 8.82426 41.5744 9.92766 41.0557C11.031 40.5369 11.9476 39.6904 12.5521 38.6316C13.1568 37.5726 13.42 36.3531 13.306 35.1392L13.3366 35.1682C13.2509 34.1533 13.3878 33.1322 13.7376 32.1757C14.0872 31.2193 14.6416 30.3508 15.3616 29.6306C16.0818 28.9106 16.9503 28.3562 17.9067 28.0066C18.8632 27.6569 19.8843 27.5199 20.8991 27.6056Z" fill="#F5F5F5"/>
<path d="M10.1015 24.3733C10.7121 23.7592 11.1797 23.0177 11.4707 22.202C11.7617 21.3863 11.8691 20.5163 11.7851 19.6544L11.8157 19.6834C11.73 18.6684 11.8669 17.6468 12.2168 16.6901C12.5668 15.7334 13.1214 14.8647 13.8419 14.1445C14.5623 13.4244 15.4312 12.8702 16.3881 12.5207C17.3449 12.1711 18.3665 12.0347 19.3815 12.1208L19.3509 12.0918C20.5644 12.2055 21.7835 11.9421 22.8418 11.3376C23.9002 10.733 24.7462 9.81674 25.2648 8.71369C25.7833 7.61062 25.9489 6.3745 25.7391 5.17385C25.5293 3.9732 24.9542 2.8665 24.0924 2.00465C23.2306 1.1428 22.1238 0.567765 20.9232 0.357966C19.7226 0.148151 18.4864 0.313805 17.3834 0.832293C16.2803 1.35078 15.364 2.19689 14.7595 3.25523C14.1549 4.31357 13.8915 5.53263 14.0052 6.74615L13.9762 6.71715C14.0619 7.73191 13.925 8.75314 13.5752 9.70956C13.2254 10.666 12.6713 11.5345 11.9512 12.2547C11.2311 12.9748 10.3625 13.529 9.40607 13.8787C8.44965 14.2285 7.42843 14.3654 6.41367 14.2797L6.44267 14.3087C5.45114 14.2198 4.45321 14.3827 3.54135 14.782C2.62949 15.1814 1.8332 15.8046 1.22628 16.5937C0.619358 17.3827 0.221445 18.3123 0.0693888 19.2961C-0.0826518 20.28 0.0160932 21.2863 0.356473 22.2217C0.696852 23.1572 1.26788 23.9916 2.01661 24.6477C2.76534 25.3039 3.66756 25.7603 4.63968 25.9749C5.61177 26.1894 6.62231 26.155 7.57765 25.8752C8.53297 25.5952 9.40217 25.0787 10.1047 24.3733H10.1015Z" fill="#F5F5F5"/>
<path d="M61.7109 16.1599V19.8416H51.1223V16.1599H61.7109ZM53.5295 11.9748H58.3912V28.3377C58.3912 28.9251 58.5223 29.3604 58.7845 29.6436C59.0467 29.9163 59.4663 30.0526 60.0432 30.0526C60.232 30.0526 60.4418 30.0369 60.6725 30.0054C60.9033 29.974 61.1026 29.9372 61.2704 29.8953L62.0413 33.5455C61.5064 33.7028 60.9872 33.8182 60.4837 33.8916C59.9907 33.965 59.503 34.0017 59.0205 34.0017C57.2688 34.0017 55.9158 33.5664 54.9613 32.6959C54.0068 31.8148 53.5295 30.5771 53.5295 28.9827V11.9748ZM63.835 33.75V16.1599H68.6966V33.75H63.835ZM66.2579 13.91C65.5342 13.91 64.9153 13.6688 64.4014 13.1863C63.8874 12.7038 63.6304 12.1217 63.6304 11.4399C63.6304 10.7581 63.8874 10.1812 64.4014 9.7092C64.9153 9.22671 65.5342 8.98546 66.2579 8.98546C66.9922 8.98546 67.6162 9.22671 68.1302 9.7092C68.6442 10.1812 68.9011 10.7581 68.9011 11.4399C68.9011 12.1217 68.6442 12.7038 68.1302 13.1863C67.6162 13.6688 66.9922 13.91 66.2579 13.91ZM76.5791 34.0804C75.4673 34.0804 74.4656 33.8864 73.574 33.4983C72.6929 33.0997 72.0007 32.5123 71.4972 31.7361C70.9937 30.9599 70.742 29.9949 70.742 28.8411C70.742 27.8552 70.9203 27.037 71.2769 26.3867C71.6335 25.7259 72.1213 25.191 72.7401 24.7819C73.359 24.3728 74.0617 24.0634 74.8484 23.8536C75.6351 23.6438 76.469 23.497 77.35 23.4131C78.3675 23.3187 79.1856 23.2243 79.8045 23.1299C80.4233 23.0355 80.8743 22.8939 81.1576 22.7051C81.4512 22.5058 81.5981 22.2226 81.5981 21.8555V21.7768C81.5981 21.0531 81.3673 20.4919 80.9058 20.0933C80.4548 19.6947 79.815 19.4954 78.9863 19.4954C78.1157 19.4954 77.4182 19.6895 76.8938 20.0776C76.3798 20.4552 76.0389 20.9377 75.8711 21.5251L71.3556 21.1632C71.5863 20.0933 72.0374 19.1703 72.7087 18.3941C73.38 17.6074 74.2453 17.0043 75.3047 16.5847C76.3746 16.1547 77.6123 15.9397 79.0178 15.9397C79.9933 15.9397 80.9268 16.055 81.8184 16.2858C82.7099 16.5166 83.5018 16.8732 84.1941 17.3557C84.8969 17.8277 85.4528 18.4413 85.8619 19.1965C86.2709 19.9517 86.4755 20.8485 86.4755 21.8869V33.75H81.8341V31.2956H81.7082C81.425 31.8515 81.0474 32.3392 80.5754 32.7588C80.1034 33.1679 79.537 33.493 78.8762 33.7343C78.2154 33.965 77.4497 34.0804 76.5791 34.0804ZM77.9794 30.7134C78.6926 30.7134 79.322 30.5718 79.8674 30.2886C80.4233 29.9949 80.8534 29.6068 81.1576 29.1243C81.4722 28.6314 81.6296 28.0807 81.6296 27.4723V25.6C81.4827 25.6944 81.2729 25.7836 81.0002 25.8675C80.738 25.9514 80.4443 26.0248 80.1191 26.0878C79.794 26.1507 79.4688 26.2084 79.1437 26.2609C78.8185 26.3028 78.5248 26.3448 78.2626 26.3867C77.6857 26.4706 77.1822 26.607 76.7522 26.7958C76.3221 26.9741 75.9865 27.2206 75.7452 27.5353C75.5145 27.8394 75.3991 28.2223 75.3991 28.6838C75.3991 29.3446 75.6403 29.8481 76.1228 30.1942C76.6053 30.5404 77.2242 30.7134 77.9794 30.7134ZM94.1849 23.5862V33.75H89.3232V16.1599H94.1062V19.2909H94.2793C94.6779 18.2525 95.3125 17.4344 96.183 16.8365C97.0536 16.2386 98.1445 15.9397 99.4556 15.9397C100.672 15.9397 101.732 16.2071 102.634 16.7421C103.546 17.277 104.254 18.0375 104.758 19.0234C105.261 20.0094 105.513 21.1894 105.513 22.5635V33.75H100.651V23.4288C100.651 22.3589 100.373 21.5198 99.8175 20.9115C99.2616 20.2926 98.4959 19.9832 97.5204 19.9832C96.8701 19.9832 96.2932 20.13 95.7897 20.4237C95.2862 20.7069 94.8929 21.116 94.6097 21.6509C94.3265 22.1859 94.1849 22.8309 94.1849 23.5862Z" fill="#F5F5F5"/>
</svg>
